<?xml version="1.0" encoding="UTF-8" standalone="no"?>
<!DOCTYPE svg PUBLIC "-//W3C//DTD SVG 1.1//EN"
 "http://www.w3.org/Graphics/SVG/1.1/DTD/svg11.dtd">
<!-- Generated by graphviz version 2.43.0 (0)
 -->
<!-- Title: rearranged Pages: 1 -->
<svg width="316pt" height="130pt"
 viewBox="0.00 0.00 316.00 130.00" xmlns="http://www.w3.org/2000/svg" xmlns:xlink="http://www.w3.org/1999/xlink">
<g id="graph0" class="graph" transform="scale(1 1) rotate(0) translate(4 126)">
<title>rearranged</title>
<g id="clust1" class="cluster">
<title>cluster_0</title>
<polygon fill="#8bc4e9" stroke="black" points="64,-8 64,-114 300,-114 300,-8 64,-8"/>
<text text-anchor="middle" x="182" y="-102" font-family="Lato" font-size="10.00">pre&#45;commit</text>
</g>
<g id="clust2" class="cluster">
<title>cluster_1</title>
<polygon fill="#8bc4e9" stroke="black" points="208,-16 208,-87 292,-87 292,-16 208,-16"/>
<text text-anchor="middle" x="250" y="-75" font-family="Lato" font-size="10.00">flake8</text>
</g>
<!-- pytest -->
<g id="node1" class="node">
<title>pytest</title>
<polygon fill="#8bc4e9" stroke="black" points="54,-60 0,-60 0,-24 54,-24 54,-60"/>
<text text-anchor="middle" x="27" y="-39.5" font-family="Lato" font-size="10.00">pytest</text>
</g>
<!-- black -->
<g id="node2" class="node">
<title>black</title>
<polygon fill="#8bc4e9" stroke="black" points="198,-60 144,-60 144,-24 198,-24 198,-60"/>
<text text-anchor="middle" x="171" y="-39.5" font-family="Lato" font-size="10.00">black</text>
</g>
<!-- mypy -->
<g id="node3" class="node">
<title>mypy</title>
<polygon fill="#8bc4e9" stroke="black" points="126,-60 72,-60 72,-24 126,-24 126,-60"/>
<text text-anchor="middle" x="99" y="-39.5" font-family="Lato" font-size="10.00">mypy</text>
</g>
<!-- flake8&#45;isort -->
<g id="node4" class="node">
<title>flake8&#45;isort</title>
<polygon fill="#8bc4e9" stroke="black" points="284,-60 216,-60 216,-24 284,-24 284,-60"/>
<text text-anchor="middle" x="250" y="-39.5" font-family="Lato" font-size="10.00">flake8&#45;isort</text>
</g>
</g>
</svg>
