<?xml version="1.0" encoding="UTF-8" standalone="no"?>
<!DOCTYPE svg PUBLIC "-//W3C//DTD SVG 1.1//EN"
 "http://www.w3.org/Graphics/SVG/1.1/DTD/svg11.dtd">
<!-- Generated by graphviz version 2.43.0 (0)
 -->
<!-- Title: initial Pages: 1 -->
<svg width="296pt" height="130pt"
 viewBox="0.00 0.00 296.00 130.00" xmlns="http://www.w3.org/2000/svg" xmlns:xlink="http://www.w3.org/1999/xlink">
<g id="graph0" class="graph" transform="scale(1 1) rotate(0) translate(4 126)">
<title>initial</title>
<g id="clust1" class="cluster">
<title>cluster_0</title>
<polygon fill="#8bc4e9" stroke="black" points="8,-8 8,-114 280,-114 280,-8 8,-8"/>
<text text-anchor="middle" x="144" y="-102" font-family="Lato" font-size="10.00">pytest</text>
</g>
<g id="clust2" class="cluster">
<title>cluster_1</title>
<polygon fill="#8bc4e9" stroke="black" points="188,-16 188,-87 272,-87 272,-16 188,-16"/>
<text text-anchor="middle" x="230" y="-75" font-family="Lato" font-size="10.00">pytest&#45;flake8</text>
</g>
<!-- pytest&#45;black -->
<g id="node1" class="node">
<title>pytest&#45;black</title>
<polygon fill="#8bc4e9" stroke="black" points="177.5,-60 106.5,-60 106.5,-24 177.5,-24 177.5,-60"/>
<text text-anchor="middle" x="142" y="-39.5" font-family="Lato" font-size="10.00">pytest&#45;black</text>
</g>
<!-- pytest&#45;mypy -->
<g id="node2" class="node">
<title>pytest&#45;mypy</title>
<polygon fill="#8bc4e9" stroke="black" points="88,-60 16,-60 16,-24 88,-24 88,-60"/>
<text text-anchor="middle" x="52" y="-39.5" font-family="Lato" font-size="10.00">pytest&#45;mypy</text>
</g>
<!-- flake8&#45;isort -->
<g id="node3" class="node">
<title>flake8&#45;isort</title>
<polygon fill="#8bc4e9" stroke="black" points="264,-60 196,-60 196,-24 264,-24 264,-60"/>
<text text-anchor="middle" x="230" y="-39.5" font-family="Lato" font-size="10.00">flake8&#45;isort</text>
</g>
</g>
</svg>
