<?xml version="1.0" encoding="UTF-8" standalone="no"?>
<!DOCTYPE svg PUBLIC "-//W3C//DTD SVG 1.1//EN"
 "http://www.w3.org/Graphics/SVG/1.1/DTD/svg11.dtd">
<!-- Generated by graphviz version 2.43.0 (0)
 -->
<!-- Title: rearranged Pages: 1 -->
<svg width="308pt" height="95pt"
 viewBox="0.00 0.00 308.00 95.00" xmlns="http://www.w3.org/2000/svg" xmlns:xlink="http://www.w3.org/1999/xlink">
<g id="graph0" class="graph" transform="scale(1 1) rotate(0) translate(4 91)">
<title>rearranged</title>
<g id="clust1" class="cluster">
<title>cluster_1</title>
<polygon fill="#8bc4e9" stroke="black" points="208,-8 208,-79 292,-79 292,-8 208,-8"/>
<text text-anchor="middle" x="250" y="-67" font-family="Lato" font-size="10.00">flake8</text>
</g>
<!-- pytest -->
<g id="node1" class="node">
<title>pytest</title>
<polygon fill="#8bc4e9" stroke="black" points="54,-52 0,-52 0,-16 54,-16 54,-52"/>
<text text-anchor="middle" x="27" y="-31.5" font-family="Lato" font-size="10.00">pytest</text>
</g>
<!-- black -->
<g id="node2" class="node">
<title>black</title>
<polygon fill="#8bc4e9" stroke="black" points="126,-52 72,-52 72,-16 126,-16 126,-52"/>
<text text-anchor="middle" x="99" y="-31.5" font-family="Lato" font-size="10.00">black</text>
</g>
<!-- mypy -->
<g id="node3" class="node">
<title>mypy</title>
<polygon fill="#8bc4e9" stroke="black" points="198,-52 144,-52 144,-16 198,-16 198,-52"/>
<text text-anchor="middle" x="171" y="-31.5" font-family="Lato" font-size="10.00">mypy</text>
</g>
<!-- flake8&#45;isort -->
<g id="node4" class="node">
<title>flake8&#45;isort</title>
<polygon fill="#8bc4e9" stroke="black" points="284,-52 216,-52 216,-16 284,-16 284,-52"/>
<text text-anchor="middle" x="250" y="-31.5" font-family="Lato" font-size="10.00">flake8&#45;isort</text>
</g>
</g>
</svg>
